<svg xmlns="http://www.w3.org/2000/svg" width="12.585" height="12.577" viewBox="0 0 12.585 12.577"><defs><style>.a{fill:#a6acb5;stroke:#fff;stroke-width:0.5px;}</style></defs><g transform="translate(0.316 0.317)"><path class="a" d="M16.989,17.015a.858.858,0,0,0,.609-1.466l-4.545-4.537L17.6,6.475a.858.858,0,0,0-1.209-1.209l-5.146,5.146a.858.858,0,0,0,0,1.209l5.146,5.146a.858.858,0,0,0,.6.249Z" transform="translate(-10.994 -5.005)"/><path class="a" d="M11,17.006a.858.858,0,0,0,.609-1.466L7.062,11l4.545-4.537a.861.861,0,0,0-1.218-1.218L5.244,10.394a.858.858,0,0,0,0,1.209l5.146,5.146A.858.858,0,0,0,11,17.006Z" transform="translate(0.143 -4.996)"/></g></svg>