<svg xmlns="http://www.w3.org/2000/svg" width="138.469" height="60.635" viewBox="0 0 138.469 60.635"><defs><style>.a{fill:#003353;}.a,.b,.c,.d{fill-rule:evenodd;}.b{fill:#ff9901;}.c{fill:#33a02c;}.d{fill:#000f18;}</style></defs><g transform="translate(-113 -203)"><path class="a" d="M130.3,213.1h10.677v1.945H130.3V213.1Z" transform="translate(21.637 12.626)"/><path class="a" d="M130.3,214.675h10.677v1.944H130.3v-1.944Z" transform="translate(21.637 14.598)"/><path class="b" d="M130.3,213.1h10.677v1.945H130.3V213.1Z" transform="translate(21.638 12.626)"/><path class="c" d="M130.3,214.675h10.677v1.944H130.3v-1.944Z" transform="translate(21.638 14.598)"/><path class="d" d="M122.814,218.418a2.6,2.6,0,0,1-.655.11,2.8,2.8,0,0,1-.968-.135v-2.415h5.8v1.888a6.641,6.641,0,0,0-1.006-.99,2.145,2.145,0,0,0-1.035-.239,1.983,1.983,0,0,0-2.138,1.78Zm59.606-2.439v1.089h-1.8c-1.3,0-1.879.745-1.879,1.445,0,.86.466,1.656,1.812,3.583l.5-.387a4.112,4.112,0,0,1-1.143-2.268c0-.707.254-1.215,1.15-1.215h1.382v3.1l1.229.866v-6.213h1.355l-.673-1.152H167.09l.684,1.152h.99v2.6h-2.1l.043-1.5c0-.828-.466-2.257-1.911-2.257a1.362,1.362,0,0,0-1.424,1.386c0,.79.635,1.564,2.176,1.915l-.07.441h-.682a.387.387,0,0,0-.392.414c0,.482,1.334,1.737,1.753,1.737.3,0,.38-.232.412-.979h2.2v1.584l1.217.866v-6.213h1.663v5.347l1.206.866v-6.213H175.6v1.9c0,.148-.056.248-.151.248-.234,0-.563-.342-.918-.342-.182,0-.423.3-.387.45,0,.227.241.587.729,1.184l2.291,2.853.486-.484a15.218,15.218,0,0,1-1.767-2.034,1.831,1.831,0,0,0,.887-1.348v-2.428h5.646Zm-16.781.443-.049,1.1c-.794-.135-1.139-.5-1.139-1.067a.894.894,0,0,1,.673-.864c.216,0,.545.221.515.83Zm-26.577.344v-.788h1.929l-.659-1.152H117.424l.655,1.152h1.906v2.041c0,.1-.032.169-.065.169-.149,0-.45-.4-.727-.4a.529.529,0,0,0-.5.482,2.989,2.989,0,0,0,.574,1.289l2.185,3.011.509-.5a17.259,17.259,0,0,1-1.733-2.091,3.951,3.951,0,0,0,.9-.977,1.984,1.984,0,0,0,1.206.689,3.079,3.079,0,0,0,.819-.128,2.618,2.618,0,0,0,2.052,1.3,3.027,3.027,0,0,0,1.809-.8v1.269l1.181.866v-6.213h9.731v.65a1.417,1.417,0,0,0-1.276,1.445c0,.716.549,1.391,1.652,2a3.5,3.5,0,0,1-2.451,1.148c-.628,0-.806-.18-.806-.5,0-.4.4-.8,1.564-.8l-.506-1.215a1.994,1.994,0,0,0-1.157.209,1.239,1.239,0,0,1-.207-.164l-.218-.331a.592.592,0,0,1-.02-.126.709.709,0,0,1,.785-.657,3.98,3.98,0,0,1,.774.079l-.549-1.114a2.387,2.387,0,0,0-.565-.068,1.361,1.361,0,0,0-1.407.92l-.214-.387H129.2l.662,1.157h.774a1.585,1.585,0,0,0-.212.842,2.389,2.389,0,0,0,2.131,2.012,2.9,2.9,0,0,0,1.539-.691,2.855,2.855,0,0,0,2.484,1.8,3.792,3.792,0,0,0,3.558-3.542,2.876,2.876,0,0,0-1.071-1.884Zm-5.405,1.458a3.342,3.342,0,0,0,.43.644,3.568,3.568,0,0,1-2.208,1.242c-.311,0-.464-.122-.464-.414a1.7,1.7,0,0,1,.815-1.3,2.322,2.322,0,0,1,1.015-.169Zm4.931,1.447a1.571,1.571,0,0,1-.722-1.254c0-.527.358-1.019.8-1.019.232,0,.421.2.421.758a3.17,3.17,0,0,1-.5,1.515Zm-13.991.221a.671.671,0,0,1-.659-.747,1.285,1.285,0,0,1,1.224-1.346,2.817,2.817,0,0,1,1.852.758v.164a6.3,6.3,0,0,1-2.417,1.17Z" transform="translate(5.532 14.787)"/><path class="d" d="M118.982,231.466v-2.624h4v1.611h-.016a1.861,1.861,0,0,0-.621-.808,1.718,1.718,0,0,0-.763-.185,1.425,1.425,0,0,0-1.51,1.406,2.027,2.027,0,0,0,1.857,1.659,1.948,1.948,0,0,0,1.082-.477l-.014.9.925.657v-2.088a3.221,3.221,0,0,1,1.323-.792.339.339,0,0,1,.306.322,5.452,5.452,0,0,1-.684,1.641l.857.639a3.7,3.7,0,0,0,.542-1.647,1.628,1.628,0,0,0-1.355-1.733,1.967,1.967,0,0,0-.99.423v-1.533h3.047l-.515-.864h-12l.5.864h.727v2.822c0,.209.065.385.383.6.2.135,2.534,1.515,2.8,1.695a.5.5,0,0,1,.266.419,1.163,1.163,0,0,1-.158.414l.842.621a1.573,1.573,0,0,0,.389-.8.8.8,0,0,0-.441-.666l-2.282-1.407c-.781-.484-.853-.736-.853-.988v-2.714h1.413V230.8c0,.376-.108.509-.347.509-.142,0-.295-.036-.412-.043l.4.68a2.756,2.756,0,0,0,.817.178c.326,0,.479-.13.479-.653Zm75.01-2.624h.727v1.422c0,.11-.036.18-.11.18-.173,0-.414-.252-.68-.252-.144,0-.32.225-.293.333,0,.171.178.441.549.891l1.708,2.129.36-.358a13.038,13.038,0,0,1-1.321-1.524,1.37,1.37,0,0,0,.664-1.013v-1.809h1.726l-.52-.864h-4.465a9.559,9.559,0,0,0-1.4-2.046,1.214,1.214,0,0,0-.853-.362c-.248,0-.549.013-.549.214,0,.124.043.216.434.914a2.381,2.381,0,0,1,.585-.1.724.724,0,0,1,.524.239,6.067,6.067,0,0,1,.878,1.143H188.7l.488.864h.666v1.274c0,.266-.542.581-.981.581a1.248,1.248,0,0,1-.794-.387.835.835,0,0,0,.446-.727,2.174,2.174,0,0,0-1.9-1.728,5.468,5.468,0,0,0-1.355.36l.479.9a4.887,4.887,0,0,1,1.533-.421c.261,0,.437.092.437.367,0,.47-.47.869-1.436,1.015-.2.027-.259.09-.259.133a3.874,3.874,0,0,0,.558.781,4.127,4.127,0,0,0,1.136-.439,1.477,1.477,0,0,1,.2.734.975.975,0,0,1-1.085.851c-.567,0-1.143-.5-1.6-1.44l-.362.223c.56,1.186,1.494,2.034,2.338,2.034a1.387,1.387,0,0,0,1.526-1.269,1.485,1.485,0,0,0-.108-.576l.016-.027a3.013,3.013,0,0,0,.873.335.926.926,0,0,0,.371-.059v1.481l.916.644v-4.64h1.053v4l.907.644v-4.64h1.231Zm-11.081,0-.506-.864h-1c-.169-1.6-.938-2.34-1.866-2.34a1.2,1.2,0,0,0-1.278,1.069,1.288,1.288,0,0,0,.347.8l.542-.063a2.63,2.63,0,0,1-.016-.329.7.7,0,0,1,.736-.693c.569,0,1.082.628,1.109,1.56h-8.1l.506.864h3.4v1.611h-.016a1.861,1.861,0,0,0-.621-.808,1.709,1.709,0,0,0-.761-.185,1.427,1.427,0,0,0-1.512,1.406,2.027,2.027,0,0,0,1.857,1.659,1.941,1.941,0,0,0,1.082-.477l-.016.9.929.657v-2.088a3.228,3.228,0,0,1,1.321-.792.339.339,0,0,1,.306.322,5.512,5.512,0,0,1-.684,1.641l.857.639a3.716,3.716,0,0,0,.538-1.647,1.625,1.625,0,0,0-1.35-1.733,1.952,1.952,0,0,0-.988.423v-1.533h3.049v4l.907.644v-4.64Zm-6.114,2.142a5.663,5.663,0,0,1-1.652.889c-.2,0-.394-.218-.394-.569a1.025,1.025,0,0,1,.941-.983,1.556,1.556,0,0,1,1.1.664Zm-6.429,2.5v-4.64H171.6l-.515-.864H146.682l.515.864h1.472v1.523c0,.072-.018.124-.052.124-.115,0-.347-.3-.558-.3a.407.407,0,0,0-.389.36,2.167,2.167,0,0,0,.45.97l1.688,2.239.4-.369a12.47,12.47,0,0,1-1.339-1.566,3.351,3.351,0,0,0,.7-.727,1.565,1.565,0,0,0,.934.511,2.773,2.773,0,0,0,.635-.09,2.061,2.061,0,0,0,1.591.968,2.378,2.378,0,0,0,1.4-.6v.952l.925.644v-4.64H162.6v.482a1.072,1.072,0,0,0-.988,1.085c0,.529.428,1.042,1.278,1.487a2.747,2.747,0,0,1-1.9.871c-.486,0-.621-.151-.621-.385,0-.3.3-.6,1.215-.6l-.4-.909a1.627,1.627,0,0,0-.9.162.761.761,0,0,1-.155-.126l-.032-.4a.929.929,0,0,1-.142.153.238.238,0,0,1-.018-.09c0-.29.263-.493.612-.493a2.938,2.938,0,0,1,.594.061l-.421-.833a2.093,2.093,0,0,0-.439-.054,1.052,1.052,0,0,0-1.094.686l-.167-.284h-3.2l.509.864h.6a1.128,1.128,0,0,0-.171.626,1.83,1.83,0,0,0,1.663,1.506,2.2,2.2,0,0,0,1.186-.52,2.213,2.213,0,0,0,1.935,1.353,2.9,2.9,0,0,0,2.761-2.644,2.126,2.126,0,0,0-.833-1.406v-.59h3.992v.812h-1.339c-.968,0-1.4.556-1.4,1.076,0,.648.344,1.242,1.353,2.682l.38-.29a3.067,3.067,0,0,1-.862-1.7c0-.522.2-.9.869-.9h1.031v2.32l.911.644v-4.64h1.058v4l.9.644Zm-11.094-2.964a2.856,2.856,0,0,0,.338.484,2.8,2.8,0,0,1-1.71.932c-.238,0-.365-.1-.365-.313a1.275,1.275,0,0,1,.637-.979,1.892,1.892,0,0,1,.792-.124Zm3.832,1.08a1.158,1.158,0,0,1-.563-.941.723.723,0,0,1,.621-.763c.176,0,.326.164.326.574a2.3,2.3,0,0,1-.385,1.13Zm-11.995-2.757h3v1.4a5.261,5.261,0,0,0-.785-.738,1.709,1.709,0,0,0-.806-.171,1.533,1.533,0,0,0-1.661,1.321,1.922,1.922,0,0,1-.5.09,2.364,2.364,0,0,1-.756-.106v-1.8h1.508Zm1.136,2.921a.507.507,0,0,1-.506-.554.968.968,0,0,1,.947-1.006,2.232,2.232,0,0,1,1.433.563v.126a4.943,4.943,0,0,1-1.875.871Zm-10.444-.142h1.623l-.009,1.217.934.644v-4.64h1.01l-.506-.864H128.274l.513.864h3.4v1.611h-.029a1.844,1.844,0,0,0-.619-.808,1.7,1.7,0,0,0-.763-.185,1.421,1.421,0,0,0-1.506,1.406,2.022,2.022,0,0,0,1.85,1.659,1.908,1.908,0,0,0,1.08-.477l-.009.9.927.657v-2.088a3.207,3.207,0,0,1,1.323-.792.345.345,0,0,1,.308.322,5.636,5.636,0,0,1-.684,1.641l.853.639a3.721,3.721,0,0,0,.54-1.647,1.624,1.624,0,0,0-1.357-1.733,1.954,1.954,0,0,0-.983.423v-1.533h5.423v.842h-1.353c-.819,0-1.26.342-1.26,1.1a2.334,2.334,0,0,0,2.3,2.37,1.235,1.235,0,0,0,.648-.128l.718,1.447.473-.236-.8-1.38a.669.669,0,0,0,.369-.547c0-.4-.875-.979-1.152-.979a.324.324,0,0,0-.326.268c0,.3.146.358.146.506,0,.113-.308.329-.671.329a.979.979,0,0,1-.934-1.01.808.808,0,0,1,.806-.916h1.735c.1,0,.176-.09.176-.243v-1.422h1.445v1.888h-.3a.233.233,0,0,0-.248.236,2.526,2.526,0,0,0,1.217,1.344c.167,0,.266-.083.266-.225v-.464Zm1.607-2.779v1.915H141.8v-1.915ZM132.2,230.984a5.611,5.611,0,0,1-1.659.889c-.194,0-.392-.218-.392-.569a1.029,1.029,0,0,1,.941-.983,1.568,1.568,0,0,1,1.109.664Zm-9.2,0a5.685,5.685,0,0,1-1.656.889c-.2,0-.392-.218-.392-.569a1.027,1.027,0,0,1,.941-.983,1.572,1.572,0,0,1,1.107.664Z" transform="translate(1.818 28.221)"/><path class="d" d="M133.242,207.378a19.346,19.346,0,1,1-19.342,19.34,19.344,19.344,0,0,1,19.342-19.34Zm0,1.731a17.614,17.614,0,1,1-17.618,17.609,17.608,17.608,0,0,1,17.618-17.609Z" transform="translate(1.125 5.474)"/><path class="d" d="M153.563,207.378a19.346,19.346,0,1,1-19.344,19.34,19.348,19.348,0,0,1,19.344-19.34Zm0,1.731a17.614,17.614,0,1,1-17.616,17.609,17.611,17.611,0,0,1,17.616-17.609Z" transform="translate(26.532 5.474)"/><path class="d" d="M114.265,231.188c-1.116.506-1.875-1.1-.6-1.672l6.724-3.029,42.357-19.7,3.931-1.706c4.717-1.776,9.353-3.056,13.493-1.08,6.425,3.272,5.435,12.812.054,17.315a.89.89,0,1,1-1.247-1.267c8.232-8.671,3.13-19.252-10.507-13.739-.855.347-1.589.623-2.424,1-15.555,7.012-31.038,14.288-46.536,21.509l-5.246,2.37Z" transform="translate(0 0)"/><path class="d" d="M150.986,227.27c-1.1.536-1.868-1.073-.6-1.672L183.8,210.145l3.925-1.71c4.717-1.78,9.218-3.274,13.352-1.307,6.432,3.274,5.444,12.823.054,17.319a.891.891,0,1,1-1.249-1.269c8.173-8.858,3.135-19.412-10.361-13.514-.844.371-1.593.626-2.43,1.006-12.082,5.455-24.156,10.851-36.108,16.6Z" transform="translate(45.923 3.997)"/></g></svg>