<svg xmlns="http://www.w3.org/2000/svg" width="16" height="16" viewBox="0 0 16 16"><defs><style>.a{fill:#656e74;}</style></defs><path class="a" d="M13.938,1.25H12.5V.5a.5.5,0,1,0-1,0v.75h-7V.5a.5.5,0,0,0-1,0v.75H2.063A2.065,2.065,0,0,0,0,3.313V13.938A2.065,2.065,0,0,0,2.063,16H13.938A2.065,2.065,0,0,0,16,13.938V3.313A2.065,2.065,0,0,0,13.938,1.25Zm-11.875,1H3.5v.5a.5.5,0,0,0,1,0v-.5h7v.5a.5.5,0,1,0,1,0v-.5h1.438A1.064,1.064,0,0,1,15,3.313V4.5H1V3.313A1.064,1.064,0,0,1,2.063,2.25ZM13.938,15H2.063A1.064,1.064,0,0,1,1,13.938V5.5H15v8.438A1.064,1.064,0,0,1,13.938,15Z"/></svg>