<svg xmlns="http://www.w3.org/2000/svg" xmlns:xlink="http://www.w3.org/1999/xlink" width="267" height="202.011" viewBox="0 0 267 202.011"><defs><style>.a{fill:none;}.b,.e,.i{fill:#004976;}.b,.c,.d{font-size:14px;}.b,.c{font-family:Lato-Regular, Lato;}.c,.k{fill:#fbd437;}.d{font-family:Lato-Semibold, Lato;font-weight:600;}.e,.f{font-size:13px;font-family:MuseoSans-700, Museo Sans;font-weight:700;}.f{fill:#e6c12b;}.g{opacity:0.328;mix-blend-mode:multiply;isolation:isolate;fill:url(#a);}.h{clip-path:url(#b);}.j{clip-path:url(#c);}</style><linearGradient id="a" x1="0.484" y1="0.126" x2="1.276" y2="0.758" gradientUnits="objectBoundingBox"><stop offset="0" stop-color="#949494"/><stop offset="0.043" stop-color="#a9a9a9"/><stop offset="0.112" stop-color="#c3c3c3"/><stop offset="0.191" stop-color="#d9d9d9"/><stop offset="0.283" stop-color="#eaeaea"/><stop offset="0.397" stop-color="#f6f6f6"/><stop offset="0.556" stop-color="#fdfdfd"/><stop offset="1" stop-color="#fff"/></linearGradient><clipPath id="b"><path class="a" d="M1323.2,550v25.986a68.962,68.962,0,1,1-63.979,94.7l-22.974,9.243,53.97,63.965,127.93-32.982V588.979Z" transform="translate(-1236.25 -550)"/></clipPath><clipPath id="c"><path class="a" d="M1333.475,550v36.98a57.968,57.968,0,1,1-25.054,110.256L1287.5,740.9l140.923-29.983V588.979Z" transform="translate(-1287.5 -550)"/></clipPath></defs><g transform="translate(-86 -1839.039)"><text class="b" transform="translate(86 1845)"><tspan x="0" y="14">Case Registered</tspan></text><text class="c" transform="translate(86 1866)"><tspan x="0" y="14">Case Shortlisted</tspan></text><text class="d" transform="translate(148 1908)"><tspan x="35.059" y="14">Case </tspan><tspan x="28.979" y="35">Report</tspan></text><text class="e" transform="translate(88 1955)"><tspan x="0" y="12">1200</tspan></text><text class="f" transform="translate(169 1966)"><tspan x="0" y="12">923</tspan></text><g transform="translate(113.744 1839.039)"><path class="g" d="M1349.948,762.357l-72.705-49.163,44.545,19.057,47.979-17.99,27.158-51.972-18.62-60.672,105.419,65.688v95.051Z" transform="translate(-1244.467 -560.346)"/><g transform="translate(0 0)"><g class="h"><circle class="i" cx="79.956" cy="79.956" r="79.956" transform="translate(6.996 14.992)"/></g></g></g><g transform="translate(154.521 1839.039)"><g class="j" transform="translate(0 0)"><circle class="k" cx="68.962" cy="68.962" r="68.962" transform="translate(-22.987 25.986)"/></g></g></g></svg>