<svg xmlns="http://www.w3.org/2000/svg" width="38.937" height="42.476" viewBox="0 0 38.937 42.476"><defs><style>.a{fill:#1c4976;}</style></defs><g transform="translate(0)"><path class="a" d="M31.663,39.4H10.425A4.43,4.43,0,0,1,6,34.972V8.425A4.43,4.43,0,0,1,10.425,4H31.663a4.43,4.43,0,0,1,4.425,4.425V34.972A4.43,4.43,0,0,1,31.663,39.4ZM10.425,5.77A2.658,2.658,0,0,0,7.77,8.425V34.972a2.658,2.658,0,0,0,2.655,2.655H31.663a2.658,2.658,0,0,0,2.655-2.655V8.425A2.658,2.658,0,0,0,31.663,5.77Z" transform="translate(2.849 3.079)"/><path class="a" d="M7.194,37.167H5.425A4.43,4.43,0,0,1,1,32.742V4.425A4.43,4.43,0,0,1,5.425,0H26.663a4.43,4.43,0,0,1,4.425,4.425.885.885,0,0,1-1.77,0A2.658,2.658,0,0,0,26.663,1.77H5.425A2.658,2.658,0,0,0,2.77,4.425V32.742A2.658,2.658,0,0,0,5.425,35.4h1.77a.885.885,0,0,1,0,1.77Z" transform="translate(-1)"/><path class="a" d="M25.044,17.77H10.885a.885.885,0,0,1,0-1.77H25.044a.885.885,0,0,1,0,1.77Z" transform="translate(5.929 13.318)"/><path class="a" d="M25.044,21.77H10.885a.885.885,0,1,1,0-1.77H25.044a.885.885,0,1,1,0,1.77Z" transform="translate(5.929 13.397)"/></g></svg>