<svg xmlns="http://www.w3.org/2000/svg" width="73.605" height="73.605" viewBox="0 0 73.605 73.605"><defs><style>.a{fill:#3ba532;stroke:#fff;}</style></defs><path class="a" d="M36.3,72.605a36.3,36.3,0,1,1,36.3-36.3A36.344,36.344,0,0,1,36.3,72.605Zm0-68.068A31.765,31.765,0,1,0,68.068,36.3,31.8,31.8,0,0,0,36.3,4.538ZM31.1,49.251,53.789,26.562a2.269,2.269,0,0,0-3.208-3.208L29.5,44.439l-7.472-7.472a2.269,2.269,0,1,0-3.208,3.208l9.076,9.076a2.268,2.268,0,0,0,3.208,0Z" transform="translate(0.5 0.5)"/></svg>