<svg xmlns="http://www.w3.org/2000/svg" width="10.625" height="14.435" viewBox="0 0 10.625 14.435">
  <g id="trash_2_" data-name="trash (2)" transform="translate(0 0)">
    <path id="Path_2760" data-name="Path 2760" d="M195.18,146.207h-6.82a.677.677,0,0,1-.675-.632l-.585-8.7a.677.677,0,0,1,.676-.722h7.99a.678.678,0,0,1,.676.722l-.585,8.7A.677.677,0,0,1,195.18,146.207Zm1.928-11.323H186.516a.015.015,0,0,1-.016-.016v-1.852a.015.015,0,0,1,.016-.016h10.592a.015.015,0,0,1,.016.016v1.851A.017.017,0,0,1,197.108,134.885Z" transform="translate(-186.5 -131.773)" fill="#2d73a8"/>
    <path id="Path_2761" data-name="Path 2761" d="M344.477,59.038h-5.661a.015.015,0,0,1-.016-.016V56.916a.015.015,0,0,1,.016-.016h5.661a.015.015,0,0,1,.016.016v2.106A.016.016,0,0,1,344.477,59.038Z" transform="translate(-336.344 -56.9)" fill="#2d73a8"/>
  </g>
</svg>
