<svg xmlns="http://www.w3.org/2000/svg" width="13.434" height="13.337" viewBox="0 0 13.434 13.337"><defs><style>.a{fill:#1c4976;stroke:#fff;stroke-width:0.3px;}</style></defs><g transform="translate(0.154 0.151)"><g transform="translate(0 0)"><path class="a" d="M22.857,14.366,22,15.227l-2.153-2.156.861-.861a.475.475,0,0,1,.657,0l1.5,1.5A.465.465,0,0,1,22.857,14.366Zm-7.2,7.2-2.153-2.156,5.567-5.575L21.227,16Zm-2.651-1.117,1.611,1.614-2.244.633Zm10.615-7.513-1.5-1.5a1.583,1.583,0,0,0-2.191,0l-7.585,7.59a.522.522,0,0,0-.138.237l-1.143,4.07a.553.553,0,0,0,.138.532.667.667,0,0,0,.532.138l4.067-1.146a.522.522,0,0,0,.237-.138l7.579-7.59A1.555,1.555,0,0,0,23.625,12.941Z" transform="translate(-11.052 -10.992)"/></g></g></svg>