<svg id="register1" xmlns="http://www.w3.org/2000/svg" width="72.711" height="72.711" viewBox="0 0 72.711 72.711">
  <path id="Path_4000" data-name="Path 4000" d="M30.693,50.385A19.693,19.693,0,1,1,50.385,30.693,19.715,19.715,0,0,1,30.693,50.385Zm0-36.355A16.663,16.663,0,1,0,47.355,30.693,16.683,16.683,0,0,0,30.693,14.03Z" transform="translate(22.326 22.326)" fill="#3ba532"/>
  <path id="Path_4001" data-name="Path 4001" d="M21.575,30.149a1.531,1.531,0,0,1-1.072-.442l-6.059-6.059a1.515,1.515,0,0,1,2.142-2.142L21.5,26.419l9.537-10.9a1.515,1.515,0,0,1,2.281,1.993L22.714,29.63a1.526,1.526,0,0,1-1.091.518h-.048Z" transform="translate(28.414 30.444)" fill="#3ba532"/>
  <path id="Path_4002" data-name="Path 4002" d="M28.781,57.533H7.574A7.583,7.583,0,0,1,0,49.959V10.574A7.583,7.583,0,0,1,7.574,3h6.059a1.515,1.515,0,0,1,0,3.03H7.574A4.55,4.55,0,0,0,3.03,10.574V49.959A4.55,4.55,0,0,0,7.574,54.5H28.781a1.515,1.515,0,0,1,0,3.03Z" transform="translate(0 6.089)" fill="#3ba532"/>
  <path id="Path_4003" data-name="Path 4003" d="M25.633,21.178a1.515,1.515,0,0,1-1.515-1.515V10.574A4.55,4.55,0,0,0,19.574,6.03H13.515a1.515,1.515,0,0,1,0-3.03h6.059a7.583,7.583,0,0,1,7.574,7.574v9.089A1.515,1.515,0,0,1,25.633,21.178Z" transform="translate(24.355 6.089)" fill="#3ba532"/>
  <path id="Path_4004" data-name="Path 4004" d="M26.722,18.178H8.544A4.55,4.55,0,0,1,4,13.633V7.574A1.515,1.515,0,0,1,5.515,6.059h4.7a7.576,7.576,0,0,1,14.845,0h4.7a1.515,1.515,0,0,1,1.515,1.515v6.059A4.55,4.55,0,0,1,26.722,18.178ZM7.03,9.089v4.544a1.517,1.517,0,0,0,1.515,1.515H26.722a1.517,1.517,0,0,0,1.515-1.515V9.089H23.693a1.515,1.515,0,0,1-1.515-1.515,4.544,4.544,0,0,0-9.089,0,1.515,1.515,0,0,1-1.515,1.515Z" transform="translate(8.118)" fill="#3ba532"/>
  <path id="Path_4005" data-name="Path 4005" d="M34.811,11.03H4.515a1.515,1.515,0,0,1,0-3.03h30.3a1.515,1.515,0,0,1,0,3.03Z" transform="translate(6.089 16.237)" fill="#3ba532"/>
  <path id="Path_4006" data-name="Path 4006" d="M25.722,14.03H4.515a1.515,1.515,0,0,1,0-3.03H25.722a1.515,1.515,0,0,1,0,3.03Z" transform="translate(6.089 22.326)" fill="#3ba532"/>
  <path id="Path_4007" data-name="Path 4007" d="M19.663,17.03H4.515a1.515,1.515,0,0,1,0-3.03H19.663a1.515,1.515,0,0,1,0,3.03Z" transform="translate(6.089 28.415)" fill="#3ba532"/>
</svg>
