<svg xmlns="http://www.w3.org/2000/svg" width="24.4" height="21.445" viewBox="0 0 24.4 21.445"><defs><style>.a{fill:#fff;}</style></defs><g transform="translate(0 -31)"><path class="a" d="M22.255,39.578H18.634v-5A3.578,3.578,0,0,0,15.059,31H6.481a.715.715,0,0,0-.715.715v7.863H2.145A2.147,2.147,0,0,0,0,41.723v4.289a2.147,2.147,0,0,0,2.145,2.145H5.766V51.73a.715.715,0,0,0,.715.715H17.919a.715.715,0,0,0,.715-.715V48.156h3.622A2.147,2.147,0,0,0,24.4,46.012V41.723A2.147,2.147,0,0,0,22.255,39.578Zm-5.175-5.719H15.774V32.553A2.155,2.155,0,0,1,17.081,33.859ZM7.2,32.43h7.148v2.145a.715.715,0,0,0,.715.715H17.2v4.289H7.2ZM17.2,51.016H7.2V46.727H17.2Zm5.766-5a.716.716,0,0,1-.715.715H18.634v-.715a.715.715,0,0,0-.715-.715H6.481a.715.715,0,0,0-.715.715v.715H2.145a.716.716,0,0,1-.715-.715V41.723a.716.716,0,0,1,.715-.715H22.255a.716.716,0,0,1,.715.715Z"/><ellipse class="a" cx="1" cy="0.5" rx="1" ry="0.5" transform="translate(16.847 42.564)"/><ellipse class="a" cx="1" cy="0.5" rx="1" ry="0.5" transform="translate(13.847 42.564)"/><path class="a" d="M187.434,391h-5.719a.715.715,0,1,0,0,1.43h5.719a.715.715,0,1,0,0-1.43Z" transform="translate(-172.374 -342.844)"/></g></svg>