<svg xmlns="http://www.w3.org/2000/svg" width="18.862" height="15.438" viewBox="0 0 18.862 15.438"><defs><style>.a{fill:#fff;}</style></defs><path class="a" d="M7.037,15.438a16.185,16.185,0,0,1-2.5-.2A11.732,11.732,0,0,1,1.118,14L0,13.384l1.21-.4c1.323-.435,2.127-.7,3.123-1.127A4.155,4.155,0,0,1,2.2,9.384L1.916,8.53l.231.035a4.2,4.2,0,0,1-.526-.648A3.979,3.979,0,0,1,.946,5.551L1,4.805l.447.173a4.175,4.175,0,0,1-.4-1.134A4.315,4.315,0,0,1,1.5.939L1.89.225,2.41.85a9.574,9.574,0,0,0,6.2,3.492,3.71,3.71,0,0,1,.225-1.971,3.69,3.69,0,0,1,1.5-1.72A4.506,4.506,0,0,1,12.953.009a4.177,4.177,0,0,1,2.568,1.059,8.62,8.62,0,0,0,.94-.314c.206-.078.44-.166.732-.266L18.271.117l-.7,2.007c.046,0,.094-.007.144-.009l1.151-.052-.68.93c-.039.053-.049.068-.063.089-.055.083-.123.185-1.057,1.432a1.758,1.758,0,0,0-.329,1.145,10.83,10.83,0,0,1-.591,4.356,7.708,7.708,0,0,1-2.069,3.065,9.139,9.139,0,0,1-4.332,2.094,13.336,13.336,0,0,1-2.705.265Zm0,0" transform="translate(0 0)"/></svg>