<svg xmlns="http://www.w3.org/2000/svg" width="22.455" height="15.438" viewBox="0 0 22.455 15.438"><defs><style>.a{fill:#fff;}</style></defs><g transform="translate(0.001)"><g transform="translate(-0.001 0)"><path class="a" d="M21.5,81.488c-.609-1.083-1.27-1.283-2.616-1.359C17.54,80.038,14.159,80,11.23,80s-6.317.038-7.66.128S1.565,80.4.95,81.488,0,84.433,0,87.715v.011c0,3.267.323,5.145.95,6.216s1.276,1.28,2.619,1.371,4.727.125,7.661.125,6.31-.046,7.656-.123,2.007-.288,2.616-1.371c.633-1.071.953-2.949.953-6.216v-.011C22.455,84.433,22.135,82.57,21.5,81.488ZM8.421,91.929V83.509l7.017,4.21Z" transform="translate(0 -80)"/></g></g></svg>