<svg xmlns="http://www.w3.org/2000/svg" width="18.591" height="15.109" viewBox="0 0 18.591 15.109"><defs><style>.a{fill:#1da1f2;}</style></defs><path class="a" d="M5.847,15.609A10.779,10.779,0,0,0,16.7,4.757q0-.248-.011-.493a7.761,7.761,0,0,0,1.9-1.975,7.609,7.609,0,0,1-2.19.6A3.828,3.828,0,0,0,18.078.779a7.652,7.652,0,0,1-2.422.926,3.818,3.818,0,0,0-6.5,3.478A10.83,10.83,0,0,1,1.294,1.2,3.818,3.818,0,0,0,2.475,6.29,3.785,3.785,0,0,1,.747,5.813c0,.016,0,.032,0,.049A3.815,3.815,0,0,0,3.807,9.6a3.809,3.809,0,0,1-1.723.065,3.819,3.819,0,0,0,3.563,2.649A7.652,7.652,0,0,1,.91,13.949,7.777,7.777,0,0,1,0,13.9a10.8,10.8,0,0,0,5.847,1.713" transform="translate(0 -0.5)"/></svg>