<svg xmlns="http://www.w3.org/2000/svg" width="17.837" height="25.368" viewBox="0 0 17.837 25.368"><defs><style>.a{fill:#fff;}</style></defs><g transform="translate(-76)"><g transform="translate(76)"><g transform="translate(0)"><path class="a" d="M84.918,0a8.92,8.92,0,0,0-7.587,13.608l7.079,11.408a.743.743,0,0,0,.631.351h.006a.743.743,0,0,0,.632-.361l6.9-11.519A8.92,8.92,0,0,0,84.918,0ZM91.3,12.724,85.031,23.2,78.595,12.825a7.437,7.437,0,1,1,12.709-.1Z" transform="translate(-76)"/></g></g><g transform="translate(80.459 4.459)"><g transform="translate(0)"><path class="a" d="M170.459,90a4.459,4.459,0,1,0,4.459,4.459A4.464,4.464,0,0,0,170.459,90Zm0,7.442a2.983,2.983,0,1,1,2.978-2.983A2.985,2.985,0,0,1,170.459,97.442Z" transform="translate(-166 -90)"/></g></g></g></svg>