<svg xmlns="http://www.w3.org/2000/svg" width="203" height="96.554" viewBox="0 0 203 96.554"><defs><style>.a{fill:#1c73a8;}.b{fill:#fbd437;}.c,.d{fill:#004976;font-family:Audiowide-Regular, Audiowide;}.c{font-size:20px;letter-spacing:0.226em;}.d{font-size:7px;}.e{fill:#31547c;stroke:#b3c8d6;stroke-miterlimit:10;}</style></defs><g transform="translate(-595.789 -114.038)"><path class="a" d="M736.383,206.619v-.964s3.23-.418,9.007,5.435H746s3.216-4.189,7.589-5.29a7.8,7.8,0,0,1,.81-.152v.971s-4.409,3.559-4.827,5.953c0,0-1.406,15.089,1.026,17.027l-3.953,2.471-.912-.722-1.52.722-3.421-2.2s2.2-8.855.836-16.3A10.315,10.315,0,0,0,736.383,206.619Z" transform="translate(-52.877 -55.245)"/><path class="b" d="M705.939,272.471l3.193-11.326s14.595-.532,17.711,5.663v13.378s-3.915-5.093-13.226-6.271a50.216,50.216,0,0,1-5.169-.627A13.285,13.285,0,0,1,705.939,272.471Z" transform="translate(-34.518 -88.704)"/><path class="b" d="M781.793,272.471,778.6,261.145s-14.595-.532-17.711,5.663v13.378s3.915-5.093,13.226-6.271a50.2,50.2,0,0,0,5.169-.627A13.269,13.269,0,0,0,781.793,272.471Z" transform="translate(-67.656 -88.704)"/><path class="b" d="M703.693,291.418l-.722,2.47a8.911,8.911,0,0,0,3.136.627c1.606-.019,2.242-.057,4.551.057a34.974,34.974,0,0,1,5.7.532c1.426.342,5.074,1.4,5.074,1.4s-4.029-2.832-7.829-3.23-6.167-.618-7.222-.893A26.287,26.287,0,0,1,703.693,291.418Z" transform="translate(-32.728 -106.967)"/><path class="b" d="M702,299.971l-.405,2.61a16.725,16.725,0,0,0,6.106,0c3.547-.608,10.059-.608,11.858.051s.836.22.836.22a16.456,16.456,0,0,0-5.346-1.917c-2.28-.177-4.535-.025-6.715-.076A50.721,50.721,0,0,1,702,299.971Z" transform="translate(-31.901 -112.125)"/><path class="b" d="M701.214,307.764l-.254,2.369a9.5,9.5,0,0,0,4.865-.3,25.961,25.961,0,0,1,4.918-1.318c1.822-.253,6.738-.76,8.055-.507s.912.1.912.1a32.575,32.575,0,0,0-5.486-1.2,34.539,34.539,0,0,0-6.423.482s-2.267.38-2.952.482A35.955,35.955,0,0,1,701.214,307.764Z" transform="translate(-31.516 -116.283)"/><path class="b" d="M787.175,291.418l.722,2.47a8.911,8.911,0,0,1-3.135.627c-1.606-.019-2.242-.057-4.551.057a34.974,34.974,0,0,0-5.7.532c-1.425.342-5.074,1.4-5.074,1.4s4.029-2.832,7.829-3.23,6.167-.618,7.222-.893A26.3,26.3,0,0,0,787.175,291.418Z" transform="translate(-72.809 -106.967)"/><path class="b" d="M787.958,299.971l.405,2.61a16.725,16.725,0,0,1-6.107,0c-3.547-.608-10.059-.608-11.858.051s-.836.22-.836.22a16.457,16.457,0,0,1,5.346-1.917c2.28-.177,4.535-.025,6.715-.076A50.719,50.719,0,0,0,787.958,299.971Z" transform="translate(-72.731 -112.125)"/><path class="b" d="M789.127,307.764l.254,2.369a9.5,9.5,0,0,1-4.865-.3,25.957,25.957,0,0,0-4.917-1.318c-1.822-.253-6.738-.76-8.055-.507s-.912.1-.912.1a32.574,32.574,0,0,1,5.486-1.2,34.538,34.538,0,0,1,6.423.482s2.267.38,2.952.482A35.957,35.957,0,0,0,789.127,307.764Z" transform="translate(-73.494 -116.283)"/><g transform="translate(660.549 114.038)"><path class="a" d="M753.448,149.333s4.715-.456,3.384-8.058C756.832,141.276,752.307,142.34,753.448,149.333Z" transform="translate(-723.606 -130.464)"/><path class="a" d="M755.267,121.843s3.912-1.66.726-7.8C755.993,114.038,752.409,116.167,755.267,121.843Z" transform="translate(-724.147 -114.038)"/><path class="a" d="M741.692,135.55s3.948-2.864-1.2-8.917C740.494,126.633,737.032,129.937,741.692,135.55Z" transform="translate(-715.159 -121.633)"/><path class="a" d="M771.457,136.113s4.675-1.071,2.356-8.354C773.813,127.759,769.409,129.4,771.457,136.113Z" transform="translate(-734.249 -122.312)"/><path class="a" d="M773.2,173.713s3.905,2.506,7.369-4.029C780.571,169.684,776.453,167.753,773.2,173.713Z" transform="translate(-735.629 -147.415)"/><path class="a" d="M791.765,152.229s4.777,2.018,7.1-5.459C798.867,146.77,793.986,145.393,791.765,152.229Z" transform="translate(-746.823 -133.708)"/><path class="a" d="M723.247,136.174s2.276-3.253-3.292-6.541C719.955,129.633,718.171,133.094,723.247,136.174Z" transform="translate(-703.336 -123.442)"/><path class="a" d="M788.568,137.05s4.042.645,4.584-6C793.152,131.049,789.137,130.954,788.568,137.05Z" transform="translate(-744.896 -124.296)"/><path class="a" d="M822.248,173.236s2.717,3.4,7.9-1.438C830.147,171.8,827.058,168.85,822.248,173.236Z" transform="translate(-765.206 -148.285)"/><path class="a" d="M812.833,154.2s3.307,2.414,6.812-3.259C819.645,150.938,816.113,149.027,812.833,154.2Z" transform="translate(-759.528 -136.082)"/><path class="a" d="M737.828,156.286s1.662-3.605-4.4-5.853C733.426,150.433,732.285,154.156,737.828,156.286Z" transform="translate(-711.584 -135.986)"/><path class="a" d="M767.376,158.715s5.091,1.837,6.574-5.155C773.95,153.56,768.828,152.322,767.376,158.715Z" transform="translate(-732.116 -137.813)"/><path class="a" d="M696.848,154.761s.548-3.932-5.906-4.328C690.942,150.433,690.927,154.328,696.848,154.761Z" transform="translate(-686.023 -135.986)"/><path class="a" d="M716.335,152.361s1.549-4.565-5.626-6.264C710.709,146.1,709.769,150.72,716.335,152.361Z" transform="translate(-697.916 -133.371)"/><path class="a" d="M804.87,168.861s-4.059-3.425-8.111,2.766C796.759,171.628,801.075,174.491,804.87,168.861Z" transform="translate(-749.835 -146.529)"/><path class="a" d="M812.441,185.026s-3.382-4.1-8.475,1.273C803.966,186.3,807.7,189.886,812.441,185.026Z" transform="translate(-754.181 -155.945)"/><path class="a" d="M735.7,174.086s.723-4.767-6.639-5.178C729.063,168.908,728.95,173.624,735.7,174.086Z" transform="translate(-709.012 -147.127)"/><path class="a" d="M757.031,177.031s3.746-3.7-2.043-8.308C754.988,168.723,751.778,172.734,757.031,177.031Z" transform="translate(-724.06 -147.015)"/><path class="a" d="M733.13,191.432s-.4-5.307-9.029-4C724.1,187.437,725.2,192.544,733.13,191.432Z" transform="translate(-706.02 -158.175)"/><path class="a" d="M781.48,187.553s-3.79-3.736-9.431,2.92C772.049,190.473,776.229,193.6,781.48,187.553Z" transform="translate(-734.934 -157.74)"/><path class="a" d="M710.336,172.648s-.177-4.909-8.027-3.991C702.309,168.656,703.119,173.4,710.336,172.648Z" transform="translate(-692.878 -146.906)"/><path class="a" d="M702.849,187.135s-1.888-4.589-8.842-1C694.007,186.133,696.425,190.35,702.849,187.135Z" transform="translate(-687.872 -156.688)"/><path class="a" d="M714.657,200.873s-2.991-3.959-8.807,1.276C705.85,202.15,709.26,205.615,714.657,200.873Z" transform="translate(-695.013 -165.538)"/><path class="a" d="M800.589,203.346s-1.284-4.793-8.641-2.127C791.949,201.219,793.806,205.711,800.589,203.346Z" transform="translate(-746.934 -166.125)"/><path class="a" d="M826.886,199.745s-1.064-3.973-7.162-1.763C819.724,197.982,821.263,201.706,826.886,199.745Z" transform="translate(-763.684 -164.256)"/><path class="a" d="M685.5,174.217s-.688-3.91-6.952-2.3C678.551,171.915,679.735,175.625,685.5,174.217Z" transform="translate(-678.551 -148.706)"/><path class="a" d="M688.284,198.275s-2.4-3.163-7.235,1.129C681.049,199.4,683.8,202.163,688.284,198.275Z" transform="translate(-680.057 -164.159)"/><path class="a" d="M723.556,214.667s-3.094-2.487-6.746,2.849C716.81,217.516,720.145,219.527,723.556,214.667Z" transform="translate(-701.623 -174.372)"/><path class="a" d="M787.4,213.125s-.734,3.9,5.694,4.605C793.089,217.73,793.289,213.841,787.4,213.125Z" transform="translate(-744.173 -173.791)"/><circle class="a" cx="2.209" cy="2.209" r="2.209" transform="translate(29.957 33.22)"/></g><text class="c" transform="translate(644.676 152.054)"><tspan x="4.004" y="20">HC CR</tspan></text><text class="d" transform="translate(595.789 200.592)"><tspan x="30.863" y="7">Homoeopathic Clinical Case Registry</tspan></text><line class="e" x2="141.315" transform="translate(626.552 197.136)"/></g></svg>