<svg xmlns="http://www.w3.org/2000/svg" width="15.169" height="14.51" viewBox="0 0 15.169 14.51"><defs><style>.a{fill:#64686e;}</style></defs><g transform="translate(0 -0.332)"><path class="a" d="M159.39,219.989h-9.563a.495.495,0,1,1,0-.989h9.563a.495.495,0,1,1,0,.989Zm0,0" transform="translate(-144.715 -211.908)"/><path class="a" d="M152.472,139.918a.491.491,0,0,1-.35-.145l-2.638-2.638a.5.5,0,0,1,0-.7l2.638-2.638a.495.495,0,1,1,.7.7l-2.289,2.289,2.289,2.289a.494.494,0,0,1-.35.844Zm0,0" transform="translate(-144.723 -129.199)"/><path class="a" d="M7.255,14.842a7.255,7.255,0,1,1,6.752-9.909.495.495,0,1,1-.921.362,6.265,6.265,0,1,0,0,4.584.495.495,0,1,1,.921.362A7.218,7.218,0,0,1,7.255,14.842Zm0,0"/></g></svg>