<svg xmlns="http://www.w3.org/2000/svg" width="60.667" height="60.667" viewBox="0 0 60.667 60.667"><defs><style>.a{fill:#f5f8f8;}.b{fill:#d0d7df;}.c{fill:#2d73a8;}.d{fill:#f1f2f2;}</style></defs><g transform="translate(0.001)"><path class="a" d="M50.115,17.145V55.392a5.274,5.274,0,0,1-5.275,5.275H5.274S0,60.667,0,55.392V5.275A5.274,5.274,0,0,1,5.275,0h27.7V11.87a5.274,5.274,0,0,0,5.275,5.275h11.87Z"/><path class="b" d="M283.811,17.145h-11.87a5.274,5.274,0,0,1-5.275-5.275V0Z" transform="translate(-233.696)"/><circle class="c" cx="17.145" cy="17.145" r="17.145" transform="translate(26.376 26.377)"/><path class="d" d="M286.449,275.9h-7.913v-7.913a1.319,1.319,0,0,0-2.638,0V275.9h-7.913a1.319,1.319,0,0,0,0,2.638H275.9v7.913a1.319,1.319,0,0,0,2.638,0v-7.913h7.913a1.319,1.319,0,0,0,0-2.638Z" transform="translate(-233.696 -233.695)"/></g></svg>