<svg xmlns="http://www.w3.org/2000/svg" width="43" height="43.165" viewBox="0 0 43 43.165"><defs><style>.a{fill:#1d4976;stroke:#fff;}</style></defs><g transform="translate(0.5 0.5)"><path class="a" d="M42.638,8.6,34.4.362A1.235,1.235,0,0,0,33.53,0H14.588a3.71,3.71,0,0,0-3.706,3.706V20a11.118,11.118,0,0,0,1.235,22.167H39.294A3.71,3.71,0,0,0,43,38.459V9.471a1.235,1.235,0,0,0-.362-.874Zm-7.874-4.38L37.449,6.9l1.334,1.334H34.765ZM3.471,31.047a8.647,8.647,0,1,1,8.647,8.647A8.657,8.657,0,0,1,3.471,31.047Zm35.824,8.647H19.1a11.113,11.113,0,0,0,4.069-7.412H36a1.235,1.235,0,0,0,0-2.471H23.166a11.049,11.049,0,0,0-1.809-4.941H36A1.235,1.235,0,0,0,36,22.4H19.1A11.067,11.067,0,0,0,13.353,20V3.706a1.237,1.237,0,0,1,1.235-1.235H32.294v7a1.235,1.235,0,0,0,1.235,1.235h7V38.459A1.237,1.237,0,0,1,39.294,39.695Z" transform="translate(-1 0)"/><path class="a" d="M210.353,182H192.235a1.235,1.235,0,0,0,0,2.471h18.118a1.235,1.235,0,1,0,0-2.471Z" transform="translate(-175.353 -167.012)"/><path class="a" d="M83.773,326.521a1.235,1.235,0,1,0,1.747-1.747l-2.832-2.832,2.832-2.832a1.235,1.235,0,0,0-1.747-1.747l-2.832,2.832-2.832-2.832a1.235,1.235,0,0,0-1.747,1.747l2.832,2.832-2.832,2.832a1.235,1.235,0,1,0,1.747,1.747l2.832-2.832Z" transform="translate(-69.823 -290.894)"/></g></svg>