<svg id="notepad" xmlns="http://www.w3.org/2000/svg" width="28.899" height="33.074" viewBox="0 0 28.899 33.074">
  <g id="Group_1669" data-name="Group 1669" transform="translate(0.256 1.041)">
    <g id="Group_1668" data-name="Group 1668" transform="translate(0 0)">
      <path id="Path_2808" data-name="Path 2808" d="M21.586,0H2.089A2.007,2.007,0,0,0,0,1.908V25.644a3.824,3.824,0,0,0,.016.43H0a3.107,3.107,0,0,0,3.21,3.18H20.193a3.345,3.345,0,0,0,3.482-3.18V1.908A2.007,2.007,0,0,0,21.586,0Zm.7,26.074a2.007,2.007,0,0,1-2.089,1.908H3.21a1.918,1.918,0,0,1-1.818-1.911c0-.121,0-9.717,0-17.085V6.359h20.89Zm0-20.986H1.393V1.908a.668.668,0,0,1,.7-.636h19.5a.668.668,0,0,1,.7.636Z" transform="translate(0 0)" fill="#b4bbc6"/>
      <path id="Path_2810" data-name="Path 2810" d="M48.62,209.124h12.4a.565.565,0,1,0,0-1.124H48.62a.565.565,0,1,0,0,1.124Z" transform="translate(-44.079 -197.114)" fill="#b4bbc6"/>
      <path id="Path_2811" data-name="Path 2811" d="M135.279,304h-6.617a.569.569,0,1,0,0,1.124h6.617a.569.569,0,1,0,0-1.124Z" transform="translate(-124.078 -285.797)" fill="#b4bbc6"/>
      <path id="Path_2812" data-name="Path 2812" d="M48.62,257.124h12.4a.565.565,0,1,0,0-1.124H48.62a.565.565,0,1,0,0,1.124Z" transform="translate(-44.079 -241.455)" fill="#b4bbc6"/>
      <g id="Path_2813" data-name="Path 2813" transform="translate(16.263 19.653)" fill="#fad437">
        <path d="M 6.18994140625 11.02988147735596 C 3.521191358566284 11.02988147735596 1.350001454353333 8.858691215515137 1.350001454353333 6.18994140625 C 1.350001454353333 3.521191358566284 3.521191358566284 1.350001454353333 6.18994140625 1.350001454353333 C 8.858691215515137 1.350001454353333 11.02988147735596 3.521191358566284 11.02988147735596 6.18994140625 C 11.02988147735596 8.858691215515137 8.858691215515137 11.02988147735596 6.18994140625 11.02988147735596 Z" stroke="none"/>
        <path d="M 6.18994140625 2.70000171661377 C 4.265581130981445 2.70000171661377 2.70000171661377 4.265581130981445 2.70000171661377 6.18994140625 C 2.70000171661377 8.114301681518555 4.265581130981445 9.67988109588623 6.18994140625 9.67988109588623 C 8.114301681518555 9.67988109588623 9.67988109588623 8.114301681518555 9.67988109588623 6.18994140625 C 9.67988109588623 4.265581130981445 8.114301681518555 2.70000171661377 6.18994140625 2.70000171661377 M 6.18994140625 9.5367431640625e-07 C 9.608551025390625 9.5367431640625e-07 12.37988185882568 2.771331787109375 12.37988185882568 6.18994140625 C 12.37988185882568 9.608551025390625 9.608551025390625 12.37988185882568 6.18994140625 12.37988185882568 C 2.771331787109375 12.37988185882568 9.5367431640625e-07 9.608551025390625 9.5367431640625e-07 6.18994140625 C 9.5367431640625e-07 2.771331787109375 2.771331787109375 9.5367431640625e-07 6.18994140625 9.5367431640625e-07 Z" stroke="none" fill="#f5f8f8"/>
      </g>
    </g>
  </g>
  <rect id="Rectangle_1807" data-name="Rectangle 1807" width="27" height="6.3" fill="#f5f8f8"/>
</svg>
