<svg xmlns="http://www.w3.org/2000/svg" width="18.2" height="18.2" viewBox="0 0 18.2 18.2"><defs><style>.a{fill:#fff;stroke:#fff;stroke-width:0.2px;}</style></defs><g transform="translate(0.1 0.1)"><path class="a" d="M16.556,11.815a10.22,10.22,0,0,1-3.209-.511,1.413,1.413,0,0,0-1.427.3L9.9,13.132A11.185,11.185,0,0,1,4.867,8.1L6.35,6.133a1.455,1.455,0,0,0,.358-1.474,10.235,10.235,0,0,1-.513-3.215A1.446,1.446,0,0,0,4.75,0H1.444A1.446,1.446,0,0,0,0,1.444,16.574,16.574,0,0,0,16.556,18,1.446,1.446,0,0,0,18,16.556v-3.3A1.446,1.446,0,0,0,16.556,11.815ZM17,16.556a.445.445,0,0,1-.444.444A15.573,15.573,0,0,1,1,1.444.445.445,0,0,1,1.444,1H4.75a.445.445,0,0,1,.444.444,11.213,11.213,0,0,0,.562,3.521.5.5,0,0,1-.158.513L3.879,7.754a.5.5,0,0,0-.047.528,12.413,12.413,0,0,0,5.884,5.885.5.5,0,0,0,.529-.046l2.329-1.764a.441.441,0,0,1,.453-.105,11.228,11.228,0,0,0,3.528.563.445.445,0,0,1,.444.444Z"/></g></svg>