<svg xmlns="http://www.w3.org/2000/svg" width="12.471" height="9.977" viewBox="0 0 12.471 9.977"><defs><style>.a{fill:#696969;}</style></defs><g transform="translate(-8.483 -0.492)"><path class="a" d="M150.567,66.986a1.247,1.247,0,1,0-1.247-1.247A1.248,1.248,0,0,0,150.567,66.986Zm0,0" transform="translate(-138.967 -62.129)"/><path class="a" d="M96.232.492H86.879A1.561,1.561,0,0,0,85.32,2.051V8.91a1.561,1.561,0,0,0,1.559,1.559h9.353A1.561,1.561,0,0,0,97.791,8.91V2.051A1.561,1.561,0,0,0,96.232.492ZM86.879,1.739h9.353a.312.312,0,0,1,.312.312V6.478l-1.97-2.3a1.117,1.117,0,0,0-.836-.383,1.09,1.09,0,0,0-.833.393l-2.316,2.78-.754-.753a1.094,1.094,0,0,0-1.546,0l-1.721,1.72V2.051A.312.312,0,0,1,86.879,1.739Zm0,0" transform="translate(-76.837 0)"/></g></svg>