<svg xmlns="http://www.w3.org/2000/svg" width="11.13" height="13.698" viewBox="0 0 11.13 13.698"><defs><style>.a{fill:#1d4976;}</style></defs><path class="a" d="M58.06,1.712H55.705V1.284A1.286,1.286,0,0,0,54.421,0H52.709a1.286,1.286,0,0,0-1.284,1.284v.428H49.07A1.071,1.071,0,0,0,48,2.782v1.5a.428.428,0,0,0,.428.428h.234l.37,7.766A1.283,1.283,0,0,0,50.315,13.7h6.5A1.283,1.283,0,0,0,58.1,12.475l.37-7.766H58.7a.428.428,0,0,0,.428-.428v-1.5A1.071,1.071,0,0,0,58.06,1.712Zm-5.779-.428a.429.429,0,0,1,.428-.428h1.712a.429.429,0,0,1,.428.428v.428H52.281Zm-3.425,1.5a.214.214,0,0,1,.214-.214H58.06a.214.214,0,0,1,.214.214v1.07H48.856Zm8.387,9.652a.428.428,0,0,1-.428.408h-6.5a.428.428,0,0,1-.428-.408l-.368-7.726h8.092Z" transform="translate(-48)"/><path class="a" d="M240.428,214.421a.428.428,0,0,0,.428-.428v-5.565a.428.428,0,1,0-.856,0v5.565A.428.428,0,0,0,240.428,214.421Z" transform="translate(-234.863 -202.435)"/><path class="a" d="M320.428,214.421a.428.428,0,0,0,.428-.428v-5.565a.428.428,0,1,0-.856,0v5.565A.428.428,0,0,0,320.428,214.421Z" transform="translate(-312.723 -202.435)"/><path class="a" d="M160.428,214.421a.428.428,0,0,0,.428-.428v-5.565a.428.428,0,1,0-.856,0v5.565A.428.428,0,0,0,160.428,214.421Z" transform="translate(-157.004 -202.435)"/></svg>