<svg xmlns="http://www.w3.org/2000/svg" width="37.965" height="42.776" viewBox="0 0 37.965 42.776"><defs><style>.a{fill:#1c4976;stroke:#1c4976;stroke-width:0.3px;}</style></defs><g transform="translate(-28.849 0.15)"><path class="a" d="M152.283,133.741H169.2a.622.622,0,0,0,0-1.244H152.283a.622.622,0,0,0,0,1.244Z" transform="translate(-112.486 -121.505)"/><path class="a" d="M152.283,80.765h5.835a.622.622,0,1,0,0-1.244h-5.835a.622.622,0,0,0,0,1.244Z" transform="translate(-112.486 -72.924)"/><path class="a" d="M66.659,30.159a2.365,2.365,0,0,0-.8-1.64l-2.466-2.173V6.5c0-.023,0-.045,0-.066s0-.029,0-.044a.621.621,0,0,0-.231-.483c-.046-.051-.094-.1-.14-.138l-.1-.1L57.471.477,57.394.4a1.781,1.781,0,0,0-.37-.3L56.99.089a.878.878,0,0,0-.4-.089H34.018A1.121,1.121,0,0,0,32.9,1.118V4.354H30.117A1.121,1.121,0,0,0,29,5.475v8.613a.622.622,0,1,0,1.244,0V5.6H32.9V37a1.121,1.121,0,0,0,1.121,1.118h6.474a.622.622,0,0,0,0-1.244H34.141V1.244H56.1l0,3.146a2.627,2.627,0,0,0,2.621,2.625h3.431v18.31a2.4,2.4,0,0,0-2.47.1l-1.026-.9a6.659,6.659,0,0,0-9.52-9.136H39.8a.622.622,0,1,0,0,1.244h8.129a6.621,6.621,0,0,0-1.266,3.151H39.8a.622.622,0,1,0,0,1.244h6.825a6.666,6.666,0,0,0,1.021,3.151H39.8a.622.622,0,1,0,0,1.244h8.459a.618.618,0,0,0,.317-.087c.094.093.19.185.291.273a6.666,6.666,0,0,0,8.964-.151l1.027.9a2.4,2.4,0,0,0,.562,2.844l2.73,2.4v5.268L40.492,37c-.344,0,0,.153,0,.5s-.344.622,0,.622H58.249v3.112H30.243V14.025a.622.622,0,1,0-1.244,0V41.355a1.121,1.121,0,0,0,1.118,1.121H58.373a1.122,1.122,0,0,0,1.121-1.121V38.119h2.777A1.121,1.121,0,0,0,63.391,37v-4.48a2.373,2.373,0,0,0,.885.17c.052,0,.1,0,.157-.005a2.38,2.38,0,0,0,2.226-2.527ZM57.743,5.365a1.364,1.364,0,0,1-.4-.973V2.073l3.876,3.7h-2.5A1.367,1.367,0,0,1,57.743,5.365ZM49.686,24.671a5.423,5.423,0,0,1-.483-7.645h0a5.377,5.377,0,0,1,3.72-1.826q.176-.011.352-.011a5.416,5.416,0,1,1-3.588,9.482Zm15.449,6.391a1.144,1.144,0,0,1-1.607.1l-.338-.3-.031-.027L60.24,28.27a1.141,1.141,0,1,1,1.507-1.713l.6.53.029.026,2.656,2.341a1.143,1.143,0,0,1,.1,1.608Z"/></g></svg>