<svg xmlns="http://www.w3.org/2000/svg" width="13.84" height="13.809" viewBox="0 0 13.84 13.809"><defs><style>.a{fill:#656e74;}</style></defs><g transform="translate(-0.254 -290.914)"><path class="a" d="M7.176,290.914a.628.628,0,0,0-.445.19l-2.5,2.575a.627.627,0,1,0,.9.875l1.426-1.468v8.5a.628.628,0,1,0,1.25,0v-8.5l1.445,1.474a.627.627,0,1,0,.9-.875L7.63,291.1a.627.627,0,0,0-.455-.19ZM.853,303.466a.629.629,0,1,0,.06,1.256H13.466a.628.628,0,1,0,0-1.256H.913a.6.6,0,0,0-.06,0Z" transform="translate(0 0)"/></g></svg>