<svg xmlns="http://www.w3.org/2000/svg" width="13.595" height="10.775" viewBox="0 0 13.595 10.775"><defs><style>.a{fill:#696969;}</style></defs><g transform="translate(0.001 -93.651)"><path class="a" d="M5.258,104.424a9.661,9.661,0,0,0,3.328-.546,8.457,8.457,0,0,0,2.813-1.623,8.353,8.353,0,0,0,2.172-3.06.3.3,0,0,0-.169-.4l-.524-.2a.3.3,0,0,0-.385.162,7.2,7.2,0,0,1-1.862,2.625,6.871,6.871,0,0,1-.685.529,5.387,5.387,0,1,0-4.687,2.514Zm3.134-6.711a1.325,1.325,0,1,1-1.325,1.325A1.325,1.325,0,0,1,8.392,97.713ZM5.386,94.708a1.325,1.325,0,1,1-1.325,1.325A1.325,1.325,0,0,1,5.386,94.708Zm0,6.011a1.325,1.325,0,1,1-1.325,1.325A1.325,1.325,0,0,1,5.386,100.719Zm-4.331-1.68a1.325,1.325,0,1,1,1.325,1.325A1.325,1.325,0,0,1,1.056,99.038Z" transform="translate(0)"/></g></svg>