<svg xmlns="http://www.w3.org/2000/svg" width="16.696" height="15.584" viewBox="0 0 16.696 15.584"><defs><style>.a{fill:#fff;}</style></defs><g transform="translate(0 -15.99)"><path class="a" d="M9.7,16.046a.555.555,0,0,0-.589.067L3.7,20.443H1.113A1.115,1.115,0,0,0,0,21.556v4.452a1.114,1.114,0,0,0,1.113,1.113H3.7l5.413,4.331a.557.557,0,0,0,.59.066.555.555,0,0,0,.315-.5V16.548A.558.558,0,0,0,9.7,16.046Z"/><path class="a" d="M342.7,122.413a.557.557,0,0,0-.783.793,4.439,4.439,0,0,1,0,6.287.556.556,0,1,0,.783.79,5.552,5.552,0,0,0,0-7.87Z" transform="translate(-329.864 -102.566)"/><path class="a" d="M387.817,77.286a.557.557,0,0,0-.785.79,6.642,6.642,0,0,1,0,9.427.557.557,0,0,0,.785.79,7.757,7.757,0,0,0,0-11.007Z" transform="translate(-373.411 -59.008)"/></g></svg>