<svg id="warning1" xmlns="http://www.w3.org/2000/svg" width="14" height="14" viewBox="0 0 14 14">
  <g id="Group_1489" data-name="Group 1489">
    <g id="Group_1488" data-name="Group 1488">
      <path id="Path_2719" data-name="Path 2719" d="M7,0a7,7,0,1,0,7,7A7,7,0,0,0,7,0ZM7,12.907A5.906,5.906,0,1,1,12.907,7,5.9,5.9,0,0,1,7,12.907Z" fill="#fb3737"/>
    </g>
  </g>
  <g id="Group_1491" data-name="Group 1491" transform="translate(6.453 3.524)">
    <g id="Group_1490" data-name="Group 1490">
      <path id="Path_2720" data-name="Path 2720" d="M236.547,128.877a.547.547,0,0,0-.547.547v3.522a.547.547,0,1,0,1.094,0v-3.522A.547.547,0,0,0,236.547,128.877Z" transform="translate(-236 -128.877)" fill="#fb3737"/>
    </g>
  </g>
  <g id="Group_1493" data-name="Group 1493" transform="translate(6.262 8.809)">
    <g id="Group_1492" data-name="Group 1492">
      <circle id="Ellipse_946" data-name="Ellipse 946" cx="0.738" cy="0.738" r="0.738" fill="#fb3737"/>
    </g>
  </g>
</svg>
