<svg xmlns="http://www.w3.org/2000/svg" width="19.375" height="19.375" viewBox="0 0 19.375 19.375"><defs><style>.a{fill:#fff;}</style></defs><path class="a" d="M34.918,9.989l.019.144-.216.045-.029.306h.258l.343-.033.177-.211-.188-.073-.1-.119L35.025,9.8l-.074-.355L34.66,9.5l-.082.125v.141l.14.1Z" transform="translate(-20.8 -5.68)"/><path class="a" d="M33.946,10.71l.016-.192-.171-.074-.239.055-.177.284v.184h.207Z" transform="translate(-20.076 -6.283)"/><path class="a" d="M22,13.155l-.053.135h-.255v.131h.061s0,.028.009.065l.156-.013.1-.061.026-.122.126-.011.05-.1-.116-.024Z" transform="translate(-13.046 -7.912)"/><path class="a" d="M20.8,13.6l-.01.129.184-.016.019-.129L20.88,13.5Z" transform="translate(-12.504 -8.12)"/><path class="a" d="M19.373,9.587c0-.283-.017-.565-.044-.842a9.629,9.629,0,0,0-.641-2.638c-.025-.062-.047-.124-.074-.185A9.7,9.7,0,0,0,16.8,3.116c-.05-.053-.1-.106-.151-.158-.143-.149-.29-.294-.442-.433a9.668,9.668,0,0,0-13.075.041A9.8,9.8,0,0,0,2.021,3.775,9.683,9.683,0,1,0,18.313,14.088a9.6,9.6,0,0,0,.791-2.133c.046-.19.085-.381.12-.574a9.688,9.688,0,0,0,.151-1.693C19.375,9.654,19.373,9.621,19.373,9.587ZM17.549,5.715l.056-.063c.074.143.143.288.208.436l-.092,0-.173.024Zm-1.4-1.69,0-.433q.228.242.439.5l-.175.26-.61-.006-.038-.127ZM4.464,2.95V2.933h.194l.017-.067h.318v.139L4.9,3.127H4.463V2.95Zm.31.432s.194-.033.211-.033,0,.194,0,.194l-.438.027-.083-.1ZM18.166,7.228h-.709l-.432-.322-.455.044v.277h-.144l-.155-.111-.787-.2v-.51l-1,.078-.309.166h-.4l-.194-.02-.481.267v.5l-.983.709.082.3h.2l-.052.288-.14.051-.008.754.85.967h.37l.022-.059h.665l.192-.177h.377l.207.207.562.058-.075.747.624,1.1-.328.628.022.3.259.258v.711l.339.457v.591h.293A8.887,8.887,0,0,1,1.507,6.208V5.931l.318-.386q.166-.313.355-.61l.014.161-.369.448c-.114.216-.221.437-.318.663v.506l.369.178v.7l.354.6.288.044.037-.207-.34-.524L2.149,7h.2l.084.524.491.717L2.8,8.475l.312.478.776.192V9.019l.31.044-.029.222.244.045.377.1.532.606L6,10.09l.067.554L5.6,10.97l-.022.495-.067.3.673.842.051.288s.244.066.274.066.547.392.547.392v1.522l.184.052-.126.7.31.414-.057.7.41.721.526.46.529.01.052-.17L8.5,17.433l.022-.163.07-.2.015-.2L8.34,16.86l-.133-.167.218-.21.029-.159-.244-.07.014-.147.347-.053L9.1,15.8l.177-.325.554-.709-.126-.555.17-.3.51.016.343-.272.111-1.07.381-.483.067-.31-.347-.111-.229-.376L9.928,11.3l-.621-.237-.029-.443-.207-.362-.561-.008-.324-.509L7.9,9.6l-.015.155-.524.031-.192-.267L6.619,9.41l-.451.521-.709-.12-.051-.8L4.89,8.923,5.1,8.531l-.059-.225-.68.455L3.93,8.708l-.153-.334.093-.345.236-.435L4.65,7.32H5.7l0,.32.377.175-.03-.547.272-.273.548-.36L6.9,6.381l.547-.569.581-.322-.051-.042.394-.371.144.038.066.083.149-.166.037-.016L8.6,4.993l-.166-.055V4.778l.088-.072h.194l.089.039.077.155.094-.014V4.873l.027.009.273-.042.039-.133.155.039V4.89l-.144.1h0l.021.158.494.152v.006l.114-.01.008-.214L9.575,4.9l-.022-.1.325-.111.014-.311-.339-.207-.022-.524-.465.229h-.17l.045-.4L8.305,3.33l-.262.2v.6l-.471.149-.189.394-.2.033V4.2l-.443-.061L6.514,4l-.089-.326.793-.464L7.6,3.09l.039.261L7.86,3.34l.017-.131L8.1,3.176l0-.046-.1-.04-.022-.139.278-.024.168-.175.009-.013h0l.051-.053.584-.074.258.219L8.659,3.2l.861.2.112-.288h.377l.133-.251-.266-.067V2.475l-.835-.37-.576.067-.325.17.022.414L7.822,2.7,7.77,2.475l.326-.3L7.5,2.15l-.17.051-.074.2.222.037-.044.222-.377.022L7,2.829l-.546.015a1.5,1.5,0,0,0-.037-.31l.428-.008.326-.318L7,2.12l-.236.23-.392-.022L6.131,2h-.5L5.1,2.394h.481l.044.141L5.5,2.651l.532.015.081.192-.6-.022-.029-.148-.377-.081-.2-.111-.448,0a8.865,8.865,0,0,1,11.092.519l-.106.189-.41.161-.173.188.04.219.212.029.128.319.365-.147.06.426h-.11l-.3-.044-.332.056-.322.454-.46.072-.067.394.194.046-.056.253-.457-.092-.419.092-.089.233.073.489.246.115.412,0,.279-.025.085-.222.435-.565.286.059.282-.255.053.2.694.468-.085.114L15.7,6.223l.12.171.192.042.226-.094,0-.272.1-.05-.08-.085-.463-.258-.122-.343h.385l.123.122.332.286.014.345.343.366.128-.5.238-.13.045.41.232.255.463-.008q.134.346.241.7ZM5.284,4.4l.233-.111.21.05-.073.283L5.427,4.7Zm1.235.665v.183H5.987l-.2-.055.05-.128.255-.106h.349v.106Zm.245.255V5.5l-.133.086-.166.031V5.321Zm-.15-.072V5.038l.183.167Zm.083.426v.173l-.127.128H6.287l.044-.194.133-.012L6.492,5.7Zm-.7-.354h.294l-.377.526-.155-.083.033-.222Zm1.2.294v.172H6.913l-.077-.112v-.16h.022Zm-.261-.237.08-.084.136.084-.109.09Zm11.376,2.3.028-.033c.012.05.024.1.035.151Z"/><path class="a" d="M3.782,14.3v.277c.1-.226.2-.447.318-.663Z" transform="translate(-2.275 -8.37)"/></svg>