<svg xmlns="http://www.w3.org/2000/svg" width="24.418" height="24.418" viewBox="0 0 24.418 24.418"><defs><style>.a{fill:#fff;}</style></defs><path class="a" d="M20.84,3.577a12.206,12.206,0,1,0,0,17.262A12.2,12.2,0,0,0,20.84,3.577ZM20.33,19.1a12.235,12.235,0,0,0-1.823-1.35,19.741,19.741,0,0,0,.736-4.763h3.589a10.554,10.554,0,0,1-2.5,6.113ZM1.586,12.986H5.175a19.741,19.741,0,0,0,.736,4.763A12.235,12.235,0,0,0,4.088,19.1,10.554,10.554,0,0,1,1.586,12.986Zm2.5-7.669a12.235,12.235,0,0,0,1.823,1.35,19.741,19.741,0,0,0-.736,4.763H1.586A10.554,10.554,0,0,1,4.088,5.317Zm7.343,1.511A10.568,10.568,0,0,1,7.805,5.91c.659-1.7,1.875-3.735,3.626-4.24Zm0,1.559V11.43h-4.7A18.327,18.327,0,0,1,7.321,7.4,12.124,12.124,0,0,0,11.431,8.387Zm0,4.6V16.03a12.124,12.124,0,0,0-4.11.989,18.327,18.327,0,0,1-.59-4.033Zm0,4.6v5.158c-1.75-.5-2.966-2.541-3.626-4.24A10.568,10.568,0,0,1,11.431,17.588Zm1.556,0a10.568,10.568,0,0,1,3.626.919c-.66,1.7-1.875,3.735-3.626,4.24Zm0-1.559V12.986h4.7a18.327,18.327,0,0,1-.59,4.033,12.124,12.124,0,0,0-4.11-.989Zm0-4.6V8.387A12.124,12.124,0,0,0,17.1,7.4a18.327,18.327,0,0,1,.59,4.033Zm0-4.6V1.67c1.75.5,2.966,2.542,3.626,4.24A10.569,10.569,0,0,1,12.987,6.828Zm3.494-4.382a10.6,10.6,0,0,1,2.757,1.761,10.691,10.691,0,0,1-1.251.95,11.711,11.711,0,0,0-1.506-2.711ZM6.431,5.157a10.7,10.7,0,0,1-1.251-.95A10.6,10.6,0,0,1,7.937,2.446,11.715,11.715,0,0,0,6.431,5.157Zm0,14.1A11.712,11.712,0,0,0,7.937,21.97,10.6,10.6,0,0,1,5.18,20.21,10.691,10.691,0,0,1,6.431,19.26Zm11.555,0a10.7,10.7,0,0,1,1.251.95,10.6,10.6,0,0,1-2.757,1.761,11.71,11.71,0,0,0,1.506-2.71Zm1.256-7.829a19.74,19.74,0,0,0-.736-4.763,12.238,12.238,0,0,0,1.823-1.35,10.554,10.554,0,0,1,2.5,6.113Z" transform="translate(0 0)"/></svg>